<?xml version="1.0" encoding="UTF-8"?><svg id="Calque_4" xmlns="http://www.w3.org/2000/svg" viewBox="0 0 800 594.12"><defs><style>.cls-1{fill:#ff6254;}</style></defs><path class="cls-1" d="M378.65,383.46c-4.39,0-7.18-4.71-5.04-8.55,22.95-41.22,114.55-217.38,3.91-217.38-119.03,0-156.85,131.53-204.43,222.85-.99,1.9-2.97,3.08-5.11,3.08h-.47c-4.27,0-7.07-4.49-5.16-8.31,39.36-78.51,56.21-170.45,60.29-195.67.57-3.51-2.14-6.69-5.69-6.69H78.02c-2.8,0-5.19,2.01-5.68,4.76L.09,587.36c-.62,3.53,2.09,6.76,5.68,6.76h138.77c2.8,0,5.19-2.01,5.68-4.76l15.08-85.52c2.93-16.62,18.78-30.1,35.4-30.1s27.72,13.47,24.79,30.1l-14.73,83.52c-.62,3.53,2.09,6.76,5.68,6.76h138.77c2.8,0,5.19-2.01,5.68-4.76l15.08-85.52c2.93-16.62,18.78-30.1,35.4-30.1s27.72,13.47,24.79,30.1l-14.73,83.52c-.62,3.53,2.09,6.76,5.68,6.76h138.77c2.8,0,5.19-2.01,5.68-4.76l59.71-338.64s28.47-93.2-31.72-93.2c-119.02,0-168.63,132.81-215.78,222.86-.99,1.9-2.96,3.07-5.1,3.07h0Z"/><path class="cls-1" d="M723.88,4.19l1.71,32.24c1.33,25.18,18.85,46.59,43.28,52.86l27.81,7.15c4.44,1.14,4.43,7.45-.01,8.57l-48.55,12.32c-17.82,4.52-32.43,17.26-39.32,34.31l-19.94,49.29c-1.77,4.39-8.27,3.3-8.52-1.43l-1.71-32.24c-1.33-25.18-18.85-46.59-43.28-52.86l-27.81-7.15c-4.44-1.14-4.43-7.45.01-8.57l48.55-12.32c17.82-4.52,32.43-17.26,39.32-34.31l19.94-49.29c1.77-4.39,8.27-3.3,8.52,1.43Z"/></svg>