<?xml version="1.0" encoding="UTF-8"?><svg id="Calque_4" xmlns="http://www.w3.org/2000/svg" viewBox="0 0 1398.71 269.12"><defs><style>.cls-1{fill:#ff6254;}</style></defs><path class="cls-1" d="M1295.89,220.89c-8.58,0-14.58-2.19-18-6.57-3.43-4.38-4.32-11.18-2.7-20.4l5.34-30.3h-8.02l2.49-14.11h.41c5.85-.74,10.24-2.65,13.19-5.74,2.94-3.09,5.24-7.77,6.9-14.04l.05-.28h13.14l-2.95,16.74h16.74l-3.17,17.98h-16.74l-4.88,27.67c-.62,3.51-.21,6,1.24,7.47,1.45,1.48,3.41,2.21,5.9,2.21,1.29,0,2.66-.18,4.11-.55,1.45-.37,2.83-.88,4.14-1.52l-3.44,19.51c-3.01.83-5.63,1.36-7.89,1.59-2.25.23-4.21.35-5.87.35Z"/><path class="cls-1" d="M1335.33,219.23l-9.12-73.04h23.79l2.98,54.51h.55l22.75-54.51h22.41l-34.88,73.04h-28.5Z"/><path class="cls-1" d="M0,219.15l17.45-98.94,13.99-79.35h46.26l-12.8,72.6h2.7c4.91-18.91,10.66-33.99,17.26-45.25,6.6-11.25,14.23-19.42,22.89-24.48,8.66-5.07,18.39-7.6,29.2-7.6s19.88,2.76,25.89,8.27c6,5.52,9.69,13.96,11.07,25.33,1.37,11.37.37,25.95-2.98,43.73h2.7c4.87-18.68,10.77-33.65,17.71-44.91,6.93-11.25,14.91-19.47,23.93-24.65,9.02-5.17,19.04-7.77,30.07-7.77,9.23,0,16.92,1.69,23.08,5.07,6.16,3.38,10.95,8.44,14.37,15.2,3.42,6.75,5.36,15.25,5.8,25.49.44,10.25-.54,22.24-2.96,35.96l-17.86,101.3h-54.7l17.03-96.58c1.51-8.55,2.03-15.7,1.58-21.44-.45-5.74-1.89-10.01-4.32-12.83-2.43-2.81-5.9-4.22-10.4-4.22-5.86,0-11.72,2.65-17.61,7.93-5.89,5.29-11.28,13.23-16.18,23.81-4.91,10.59-8.79,23.98-11.64,40.18l-11.13,63.15h-53.35l17.27-97.92c1.51-8.55,2.01-15.53,1.5-20.94-.51-5.4-2.05-9.45-4.61-12.15-2.56-2.7-6.1-4.05-10.6-4.05-5.63,0-11.27,2.31-16.92,6.92-5.66,4.62-10.93,12.21-15.84,22.79-4.91,10.59-8.91,24.65-12,42.21l-11.13,63.15H0Z"/><path class="cls-1" d="M374.31,223.87c-16.88,0-30.59-2.42-41.1-7.26-10.52-4.84-18.52-11.48-24.01-19.92-5.49-8.44-8.8-18.06-9.94-28.87-1.13-10.81-.65-22.17,1.46-34.1,2.26-12.83,6.05-25.1,11.39-36.81,5.32-11.7,12.23-22.12,20.7-31.23,8.47-9.12,18.63-16.32,30.49-21.61,11.85-5.29,25.43-7.93,40.74-7.93s27.95,2.65,37.94,7.93c9.98,5.29,17.4,12.66,22.27,22.12,4.86,9.45,7.15,20.38,6.89,32.75-.27,12.39-2.92,25.78-7.93,40.18l-129.69,2.02,5.24-29.71,87.76-1.69-10.13,17.22c3.18-10.35,4.55-19.08,4.11-26.17-.44-7.09-2.58-12.49-6.43-16.21-3.85-3.71-9.71-5.57-17.59-5.57-8.33,0-15.35,2.14-21.05,6.41-5.71,4.28-10.26,10.3-13.65,18.07-3.4,7.77-6.03,16.94-7.89,27.52-3.22,18.24-2.52,31.52,2.09,39.85,4.61,8.33,13.21,12.49,25.82,12.49,5.4,0,10.02-.67,13.86-2.02,3.84-1.35,7.11-3.32,9.82-5.91,2.7-2.59,4.84-5.74,6.39-9.45,1.55-3.72,2.63-7.94,3.25-12.66l49.5,2.7c-.63,7.43-2.72,15.08-6.24,22.96-3.53,7.88-8.82,15.2-15.86,21.95-7.05,6.75-16.18,12.27-27.4,16.55-11.22,4.27-24.83,6.41-40.81,6.41Z"/><path class="cls-1" d="M555.64,223.87c-16.88,0-30.59-2.42-41.1-7.26-10.52-4.84-18.52-11.48-24.01-19.92-5.49-8.44-8.8-18.06-9.94-28.87-1.13-10.81-.65-22.17,1.46-34.1,2.26-12.83,6.05-25.1,11.39-36.81,5.32-11.7,12.23-22.12,20.7-31.23,8.47-9.12,18.63-16.32,30.49-21.61,11.85-5.29,25.43-7.93,40.74-7.93s27.95,2.65,37.94,7.93c9.98,5.29,17.4,12.66,22.27,22.12,4.86,9.45,7.15,20.38,6.89,32.75-.27,12.39-2.92,25.78-7.93,40.18l-129.69,2.02,5.24-29.71,87.76-1.69-10.13,17.22c3.18-10.35,4.55-19.08,4.11-26.17-.44-7.09-2.58-12.49-6.43-16.21-3.85-3.71-9.71-5.57-17.59-5.57-8.33,0-15.35,2.14-21.05,6.41-5.71,4.28-10.26,10.3-13.65,18.07-3.4,7.77-6.03,16.94-7.89,27.52-3.22,18.24-2.52,31.52,2.09,39.85,4.61,8.33,13.21,12.49,25.82,12.49,5.4,0,10.02-.67,13.86-2.02,3.84-1.35,7.11-3.32,9.82-5.91,2.7-2.59,4.84-5.74,6.39-9.45,1.55-3.72,2.63-7.94,3.25-12.66l49.5,2.7c-.63,7.43-2.72,15.08-6.24,22.96-3.53,7.88-8.82,15.2-15.86,21.95-7.05,6.75-16.18,12.27-27.4,16.55-11.22,4.27-24.83,6.41-40.81,6.41Z"/><path class="cls-1" d="M723.58,223.2c-20.94,0-35.58-5.35-43.94-16.04-8.36-10.69-10.55-27.29-6.58-49.81l13.04-73.95h-19.58l6.07-34.44h1.01c14.27-1.8,25-6.47,32.19-14.01,7.18-7.54,12.8-18.96,16.85-34.27l.12-.68h32.08l-7.2,40.86h40.86l-7.74,43.9h-40.86l-11.91,67.53c-1.51,8.56-.5,14.63,3.03,18.23,3.53,3.6,8.33,5.4,14.41,5.4,3.15,0,6.49-.45,10.03-1.35,3.53-.9,6.9-2.14,10.11-3.71l-8.39,47.61c-7.34,2.02-13.75,3.32-19.26,3.88-5.5.56-10.28.84-14.33.84Z"/><path class="cls-1" d="M781.82,153.3l8.45-47.95h95.56l-8.45,47.95h-95.56Z"/><path class="cls-1" d="M937.53,223.87c-19.36,0-32.52-6.75-39.48-20.26-6.96-13.51-7.98-34.22-3.06-62.13l17.74-100.63h54.7l-17.62,99.95c-2.3,13.06-2.05,22.18.75,27.35,2.8,5.18,7.69,7.77,14.67,7.77,4.95,0,9.73-1.29,14.36-3.88,4.62-2.59,8.97-6.53,13.06-11.82,4.08-5.29,7.7-12.1,10.86-20.43,3.16-8.33,5.77-18.34,7.83-30.05l12.15-68.88h54.7l-17.27,97.92-14.17,80.36h-46.6l12.27-69.56h-2.36c-4.41,17.34-9.94,31.46-16.59,42.38-6.65,10.92-14.6,18.97-23.84,24.14-9.24,5.18-19.94,7.77-32.1,7.77Z"/><path class="cls-1" d="M1062.26,269.12l29.06-164.78,11.19-63.48h47.95l-9.7,55.04h2.36c4.82-13.28,10.49-24.37,17.01-33.26,6.52-8.89,14.05-15.53,22.59-19.92,8.54-4.39,18.32-6.59,29.36-6.59,13.96,0,25.21,3.54,33.75,10.64,8.54,7.09,14.13,17.56,16.75,31.4,2.62,13.84,2.15,30.89-1.42,51.16-3.85,21.84-9.88,39.74-18.08,53.69-8.2,13.96-17.84,24.26-28.92,30.9-11.08,6.63-22.92,9.96-35.52,9.96-10.13,0-18.7-2.14-25.71-6.41-7.01-4.27-12.27-10.86-15.76-19.76-3.5-8.89-5.07-20.09-4.71-33.6h-3.04c-.03,6.53-.21,13.34-.56,20.43-.35,7.09-.85,14.07-1.5,20.94-.65,6.87-1.53,13.45-2.64,19.75l-7.74,43.9h-54.7ZM1165.95,178.97c7.2,0,13.51-2.25,18.92-6.75,5.41-4.5,9.82-10.41,13.26-17.73,3.43-7.31,5.86-15.03,7.29-23.13,1.59-9,1.85-17.16.77-24.48-1.07-7.31-3.53-13.17-7.37-17.56-3.84-4.39-9.14-6.59-15.89-6.59-4.28,0-8.61.96-13,2.87-4.39,1.91-8.51,4.84-12.35,8.78-3.85,3.94-7.27,8.95-10.25,15.03-2.99,6.08-5.23,13.39-6.74,21.95l-.36,2.02c-1.19,6.75-1.55,12.61-1.07,17.56.48,4.95,1.52,9.23,3.14,12.83,1.61,3.6,3.69,6.53,6.22,8.78,2.53,2.25,5.28,3.88,8.25,4.89,2.97,1.02,6.03,1.52,9.19,1.52Z"/></svg>